<svg id="Layer_1" data-name="Layer 1" xmlns="http://www.w3.org/2000/svg" xmlns:xlink="http://www.w3.org/1999/xlink" viewBox="0 0 266.51 264.74"><defs><style>.cls-1{fill:#753d22;}.cls-10,.cls-11,.cls-12,.cls-13,.cls-2,.cls-3,.cls-5,.cls-6,.cls-7,.cls-8{stroke-miterlimit:10;}.cls-2{fill:url(#Dark_Choco_2);stroke:url(#Dark_Choco);}.cls-3{fill:url(#Dark_Choco_2-2);stroke:url(#Dark_Choco-2);}.cls-4{fill:url(#Dark_Choco_2-3);}.cls-10,.cls-11,.cls-12,.cls-13,.cls-5,.cls-6,.cls-7,.cls-8{fill:none;}.cls-5{stroke:url(#Dark_Choco-3);}.cls-6{stroke:url(#Dark_Choco-4);}.cls-7{stroke:url(#Dark_Choco-5);}.cls-8{stroke:url(#Dark_Choco-6);}.cls-9{fill:url(#Dark_Choco_2-4);}.cls-10{stroke:url(#Dark_Choco-7);}.cls-11{stroke:url(#Dark_Choco-8);}.cls-12{stroke:url(#Dark_Choco-9);}.cls-13{stroke:url(#Dark_Choco-10);}</style><linearGradient id="Dark_Choco_2" x1="133.01" y1="264.24" x2="133.01" y2="226.65" gradientUnits="userSpaceOnUse"><stop offset="0"/><stop offset="0" stop-color="#31221a"/><stop offset="1" stop-color="#71381d"/></linearGradient><linearGradient id="Dark_Choco" x1="0.1" y1="245.45" x2="265.92" y2="245.45" gradientUnits="userSpaceOnUse"><stop offset="0"/><stop offset="0" stop-color="#5b2c12"/><stop offset="1" stop-color="#71381d"/></linearGradient><linearGradient id="Dark_Choco_2-2" x1="133.96" y1="0.5" x2="133.96" y2="38.52" xlink:href="#Dark_Choco_2"/><linearGradient id="Dark_Choco-2" x1="1.66" y1="19.51" x2="266.25" y2="19.51" xlink:href="#Dark_Choco"/><linearGradient id="Dark_Choco_2-3" x1="0.5" y1="132.25" x2="33.6" y2="132.25" xlink:href="#Dark_Choco_2"/><linearGradient id="Dark_Choco-3" x1="1.78" y1="19.72" x2="33.99" y2="19.72" xlink:href="#Dark_Choco"/><linearGradient id="Dark_Choco-4" x1="0.13" y1="245.32" x2="33.97" y2="245.32" xlink:href="#Dark_Choco"/><linearGradient id="Dark_Choco-5" x1="0" y1="132.25" x2="2.67" y2="132.25" xlink:href="#Dark_Choco"/><linearGradient id="Dark_Choco-6" x1="33.1" y1="132.8" x2="34.1" y2="132.8" xlink:href="#Dark_Choco"/><linearGradient id="Dark_Choco_2-4" x1="266.64" y1="132.1" x2="232.28" y2="132.27" xlink:href="#Dark_Choco_2"/><linearGradient id="Dark_Choco-7" x1="232.36" y1="245.41" x2="265.76" y2="245.41" xlink:href="#Dark_Choco"/><linearGradient id="Dark_Choco-8" x1="232.65" y1="19.69" x2="264.18" y2="19.69" xlink:href="#Dark_Choco"/><linearGradient id="Dark_Choco-9" x1="264.88" y1="132.01" x2="266.51" y2="132.01" xlink:href="#Dark_Choco"/><linearGradient id="Dark_Choco-10" x1="232.24" y1="132.8" x2="233.54" y2="132.8" xlink:href="#Dark_Choco"/></defs><title>Chocolate Bar</title><polygon class="cls-1" points="233.19 38.52 233.19 226.65 232.74 226.65 33.6 226.65 33.6 38.52 233.19 38.52"/><rect class="cls-2" x="0.6" y="226.65" width="264.81" height="37.59"/><rect class="cls-3" x="2.16" y="0.5" width="263.58" height="38.02"/><polygon class="cls-4" points="33.6 38.94 33.6 226.66 0.5 263.98 2.17 0.51 33.6 38.94"/><line class="cls-5" x1="2.17" y1="0.51" x2="33.6" y2="38.94"/><line class="cls-6" x1="0.5" y1="263.98" x2="33.6" y2="226.66"/><line class="cls-7" x1="2.17" y1="0.51" x2="0.5" y2="263.98"/><line class="cls-8" x1="33.6" y1="38.94" x2="33.6" y2="226.66"/><polygon class="cls-9" points="265.05 263.79 232.74 226.66 233.04 38.94 263.79 0.44 266.01 0.43 265.38 263.59 265.05 263.79"/><polyline class="cls-10" points="265.38 264.18 265.05 263.79 232.74 226.66"/><line class="cls-11" x1="263.79" y1="0.44" x2="233.04" y2="38.94"/><line class="cls-12" x1="265.38" y1="263.59" x2="266.01" y2="0.43"/><line class="cls-13" x1="232.74" y1="226.66" x2="233.04" y2="38.94"/></svg>